<svg width="24" height="24" viewBox="0 0 26 22" fill="none" xmlns="http://www.w3.org/2000/svg">
<path d="M8.40372 10.5337C6.94611 10.9827 5.96827 12.304 6.06658 13.7176C6.5297 13.1711 7.23698 12.6993 8.09375 12.389L8.40372 10.5337ZM3.89235 12.6756L2.60333 4.9624C2.59155 4.8928 2.6147 4.84983 2.61308 4.84854C4.95956 3.47098 7.61479 2.74266 10.2916 2.74266C10.357 2.74266 10.4228 2.74997 10.4886 2.75083C11.0553 2.17204 11.7776 1.76986 12.5844 1.63365C13.3518 1.50389 14.1302 1.43815 14.9073 1.40506C14.5015 0.805655 13.9128 0.363941 13.2104 0.244919C12.2391 0.08121 11.2629 0 10.2911 0C7.17686 0 4.104 0.834444 1.34884 2.45177C0.366938 3.0284 -0.159151 4.23151 0.0427534 5.43892L1.33177 13.1522C1.90986 16.612 6.87014 19.2571 9.63749 19.2571C9.78334 19.2571 9.91171 19.2373 10.0441 19.2227C9.4949 18.4888 8.86847 17.4834 8.43947 16.3189C6.50533 15.7612 4.13082 14.1009 3.89235 12.6756ZM7.85529 6.76922C7.82563 6.59219 7.76469 6.43106 7.68995 6.27938C7.35479 6.66223 6.85023 6.95613 6.25508 7.06656C5.65993 7.17742 5.09037 7.08375 4.65122 6.84441C4.63009 7.01371 4.62522 7.1873 4.65487 7.36433C4.81087 8.29674 5.65343 8.91935 6.53742 8.75521C7.42101 8.59107 8.01129 7.70163 7.85529 6.76922ZM24.6512 5.19486C21.0364 3.07309 16.8744 2.29837 12.7896 2.98844C11.6801 3.17578 10.7957 4.11679 10.5942 5.3242L9.30518 13.0374C8.67997 16.7778 13.1759 21.4708 15.7365 21.9469C18.2971 22.4234 24.043 19.6356 24.6682 15.8952L25.9572 8.18202C26.1591 6.97418 25.6331 5.77107 24.6512 5.19486ZM13.5509 9.35419C13.7069 8.42178 14.5494 7.79917 15.4334 7.96374C16.3174 8.1283 16.9073 9.01732 16.7517 9.94973C16.722 10.1268 16.6611 10.2879 16.5863 10.4396C16.2512 10.0567 15.7466 9.76282 15.1515 9.65239C14.5563 9.54153 13.9868 9.6352 13.5476 9.87453C13.5261 9.70481 13.5212 9.53122 13.5509 9.35419ZM16.4137 17.8946C14.1517 17.4739 12.6145 15.3478 12.7965 13.0434C13.6333 14.1409 15.08 15.0273 16.8382 15.3543C18.5965 15.6813 20.2434 15.3702 21.3853 14.641C20.8093 16.8728 18.6753 18.3152 16.4137 17.8946ZM21.7071 11.3917C21.3719 11.0089 20.867 10.715 20.2718 10.6046C19.6767 10.4937 19.1071 10.5874 18.668 10.8267C18.6468 10.6574 18.642 10.4838 18.6716 10.3068C18.8276 9.37438 19.6702 8.75177 20.5542 8.91591C21.4377 9.08048 22.028 9.96949 21.8724 10.9019C21.8428 11.0794 21.7818 11.2405 21.7071 11.3917Z" fill="white"/>
</svg>
