<svg width="24" height="24" viewBox="0 0 20 19" fill="none" xmlns="http://www.w3.org/2000/svg">
<path d="M17 17.9104H3C1.89543 17.9104 1 17.019 1 15.9194L1 3.97313C1 2.87351 1.89543 1.98209 3 1.98209L13 1.98209C14.1046 1.98209 15 2.87351 15 3.97313V4.96865M17 17.9104C15.8954 17.9104 15 17.019 15 15.9194L15 4.96865M17 17.9104C18.1046 17.9104 19 17.019 19 15.9194V6.9597C19 5.86008 18.1046 4.96865 17 4.96865L15 4.96865M11 1.98209L7 1.98209M5 13.9284H11M5 5.96418H11V9.94627H5V5.96418Z" stroke="white" stroke-width="2" stroke-linecap="round" stroke-linejoin="round"/>
</svg>
