<svg width="24" height="24" viewBox="0 0 18 22" fill="none" xmlns="http://www.w3.org/2000/svg">
<path d="M13.5 10.4625V11.6438C13.5 11.9222 13.2469 12.15 12.9375 12.15H5.0625C4.75313 12.15 4.5 11.9222 4.5 11.6438V10.4625C4.5 10.1841 4.75313 9.95625 5.0625 9.95625H12.9375C13.2469 9.95625 13.5 10.1841 13.5 10.4625ZM12.9375 13.5H5.0625C4.75313 13.5 4.5 13.7278 4.5 14.0063V15.1875C4.5 15.4659 4.75313 15.6938 5.0625 15.6938H12.9375C13.2469 15.6938 13.5 15.4659 13.5 15.1875V14.0063C13.5 13.7278 13.2469 13.5 12.9375 13.5ZM18 5.56453V19.575C18 20.693 16.9922 21.6 15.75 21.6H2.25C1.00781 21.6 0 20.693 0 19.575V2.025C0 0.907031 1.00781 0 2.25 0H11.8172C12.4125 0 12.9844 0.215156 13.4063 0.594844L17.3391 4.13438C17.7609 4.50984 18 5.02875 18 5.56453ZM12 2.18953V5.4H15.5672L12 2.18953ZM15.75 19.575V7.425H10.875C10.2516 7.425 9.75 6.97359 9.75 6.4125V2.025H2.25V19.575H15.75Z" fill="white"/>
</svg>
