<svg width="25" height="25" viewBox="0 0 25 25" fill="none" xmlns="http://www.w3.org/2000/svg">
<path d="M16.5141 0.189063C19.457 0.194531 19.5719 0.21875 20.1469 0.301563C21.3344 0.472656 22.3305 0.946094 23.1445 1.72422C23.6008 2.16328 23.9156 2.59297 24.1985 3.16797C24.5438 3.87031 24.7133 4.53516 24.7906 5.52422C24.807 5.73594 24.8149 9.11172 24.8149 12.4898C24.8149 15.868 24.8078 19.2492 24.7914 19.4617C24.7149 20.4344 24.5453 21.1055 24.211 21.7945C23.5461 23.1656 22.3242 24.1656 20.8492 24.5461C20.3141 24.6844 19.8305 24.7492 18.9969 24.7883C18.6992 24.8031 15.5899 24.807 12.4797 24.807C9.36954 24.807 6.26173 24.7977 5.95704 24.7844C5.23751 24.75 4.67657 24.6781 4.16954 24.5477C2.70392 24.1687 1.45939 23.1539 0.807823 21.8016C0.467198 21.0953 0.306261 20.4492 0.221105 19.4227C0.196886 19.1313 0.190636 17.6289 0.190636 12.493C0.190636 10.7625 0.189073 9.47266 0.190636 8.49219C0.195323 5.55156 0.219542 5.43359 0.303136 4.85781C0.47423 3.67188 0.947667 2.67422 1.72892 1.86328C2.15782 1.41875 2.5922 1.10156 3.14376 0.827344C3.8586 0.471094 4.51564 0.305469 5.57032 0.217188C5.86251 0.192969 7.36564 0.1875 12.5063 0.1875H16.5141V0.189063ZM12.4992 3.40937C10.0313 3.40937 9.72189 3.42031 8.75236 3.46406C7.78439 3.50859 7.12423 3.66172 6.54611 3.88672C5.94845 4.11875 5.44064 4.42969 4.93595 4.93516C4.43126 5.44063 4.11954 5.94766 3.88673 6.54531C3.66173 7.12344 3.50782 7.78437 3.46407 8.75156C3.42032 9.72109 3.40939 10.0312 3.40939 12.5C3.40939 14.9688 3.42032 15.2781 3.46407 16.2477C3.5086 17.2156 3.66173 17.8758 3.88673 18.4539C4.11876 19.0516 4.4297 19.5594 4.93517 20.0641C5.44064 20.5688 5.94767 20.8813 6.54532 21.1133C7.12345 21.3383 7.78439 21.4914 8.75236 21.5359C9.72189 21.5797 10.032 21.5906 12.5008 21.5906C14.9695 21.5906 15.2789 21.5797 16.2484 21.5359C17.2164 21.4914 17.8774 21.3383 18.4563 21.1133C19.0539 20.8813 19.5602 20.5695 20.0656 20.0641C20.5711 19.5586 20.882 19.0516 21.1149 18.4539C21.3383 17.8758 21.4914 17.2148 21.5375 16.2477C21.5813 15.2781 21.5922 14.9688 21.5922 12.5C21.5922 10.0312 21.5805 9.72109 21.5375 8.75156C21.4922 7.78359 21.3383 7.12344 21.1149 6.54531C20.882 5.94766 20.5711 5.43984 20.0656 4.93516C19.5602 4.43047 19.0539 4.11875 18.4555 3.88672C17.8758 3.66172 17.2149 3.50859 16.2469 3.46406C15.2774 3.42031 14.9688 3.40937 12.5 3.40937H12.4992ZM11.6852 5.04766C11.9274 5.04766 12.1969 5.04766 12.5008 5.04766C14.9281 5.04766 15.2156 5.05625 16.1742 5.1C17.0609 5.14062 17.5414 5.28828 17.8617 5.41328C18.286 5.57812 18.5883 5.775 18.9063 6.09297C19.2242 6.41094 19.4211 6.71406 19.5867 7.13828C19.7109 7.45859 19.8594 7.93906 19.9 8.82578C19.9438 9.78438 19.9531 10.0719 19.9531 12.4984C19.9531 14.925 19.9438 15.2125 19.9 16.1711C19.8594 17.0578 19.7117 17.5383 19.5867 17.8586C19.4219 18.2828 19.225 18.5852 18.9063 18.9031C18.5875 19.2211 18.286 19.418 17.8617 19.5828C17.5414 19.7078 17.0602 19.8555 16.1742 19.8961C15.2156 19.9398 14.9281 19.9492 12.5008 19.9492C10.0734 19.9492 9.78595 19.9398 8.82736 19.8961C7.94064 19.8555 7.46017 19.707 7.13907 19.5828C6.71486 19.418 6.41173 19.2211 6.09376 18.9031C5.77579 18.5852 5.57892 18.2828 5.41329 17.8586C5.28907 17.5383 5.14064 17.0578 5.10001 16.1711C5.05626 15.2125 5.04767 14.925 5.04767 12.4969C5.04767 10.0688 5.05626 9.78281 5.10001 8.82422C5.14064 7.9375 5.28829 7.45703 5.41329 7.13672C5.57814 6.7125 5.77501 6.40938 6.09376 6.09141C6.41251 5.77344 6.71486 5.57656 7.13907 5.41094C7.45939 5.28594 7.94064 5.13828 8.82736 5.09766C9.66564 5.06016 9.99064 5.04922 11.6852 5.04766ZM12.5008 7.83125C9.92267 7.83125 7.83204 9.92188 7.83204 12.5C7.83204 15.0781 9.92267 17.168 12.5008 17.168C15.0789 17.168 17.1688 15.0789 17.1688 12.5C17.1688 9.92109 15.0789 7.83125 12.5008 7.83125ZM12.5008 9.46953C14.1742 9.46953 15.5313 10.8258 15.5313 12.5C15.5313 14.1742 14.1742 15.5305 12.5008 15.5305C10.8274 15.5305 9.47032 14.1734 9.47032 12.5C9.47032 10.8266 10.8266 9.46953 12.5008 9.46953ZM17.3531 6.55703C16.7508 6.55703 16.2625 7.04531 16.2625 7.64766C16.2625 8.25 16.7508 8.73828 17.3531 8.73828C17.9555 8.73828 18.4438 8.25 18.4438 7.64766C18.4438 7.04531 17.9555 6.55703 17.3531 6.55703Z" fill="red"/>
</svg>
