<svg width="32" height="32" viewBox="0 0 32 32" fill="none" xmlns="http://www.w3.org/2000/svg">
<path fill-rule="evenodd" clip-rule="evenodd" d="M32 16C32 24.8366 24.8366 32 16 32C7.16344 32 0 24.8366 0 16C0 7.16344 7.16344 0 16 0C24.8366 0 32 7.16344 32 16ZM20 10C20 12.2091 18.2091 14 16 14C13.7909 14 12 12.2091 12 10C12 7.79086 13.7909 6 16 6C18.2091 6 20 7.79086 20 10ZM15.9999 18C11.9648 18 8.48789 20.3899 6.90747 23.8314C9.10806 26.3841 12.3653 28 16 28C19.6346 28 22.8917 26.3841 25.0923 23.8316C23.5119 20.39 20.035 18 15.9999 18Z" fill="#111827"/>
</svg>
