<svg width="38" height="38" viewBox="0 0 50 50" fill="none" xmlns="http://www.w3.org/2000/svg">
    <path
        d="M25 0C20.0555 0 15.222 1.46622 11.1108 4.21326C6.99952 6.96029 3.79521 10.8648 1.90302 15.4329C0.0108321 20.0011 -0.484251 25.0277 0.480379 29.8772C1.44501 34.7268 3.82603 39.1813 7.32234 42.6777C10.8187 46.174 15.2732 48.555 20.1228 49.5196C24.9723 50.4843 29.9989 49.9892 34.5671 48.097C39.1352 46.2048 43.0397 43.0005 45.7867 38.8892C48.5338 34.778 50 29.9445 50 25C49.9894 18.3728 47.3521 12.0201 42.666 7.33401C37.9799 2.6479 31.6272 0.0105781 25 0ZM25 40C24.5056 40 24.0222 39.8534 23.6111 39.5787C23.2 39.304 22.8795 38.9135 22.6903 38.4567C22.5011 37.9999 22.4516 37.4972 22.548 37.0123C22.6445 36.5273 22.8826 36.0819 23.2322 35.7322C23.5819 35.3826 24.0273 35.1445 24.5123 35.048C24.9972 34.9516 25.4999 35.0011 25.9567 35.1903C26.4135 35.3795 26.804 35.6999 27.0787 36.1111C27.3534 36.5222 27.5 37.0055 27.5 37.5C27.5 38.163 27.2366 38.7989 26.7678 39.2678C26.2989 39.7366 25.663 40 25 40ZM30.1 28.3C27.8 29.825 27.425 30.65 27.375 30.8C27.2073 31.2965 26.8878 31.7278 26.4616 32.0329C26.0354 32.3379 25.5241 32.5013 25 32.5C24.7289 32.4951 24.4597 32.4531 24.2 32.375C23.5751 32.1559 23.0606 31.7012 22.7663 31.108C22.4721 30.5148 22.4214 29.8301 22.625 29.2C23.6317 27.0647 25.2731 25.2923 27.325 24.125C28.2527 23.6855 29.01 22.9528 29.4799 22.0401C29.9498 21.1274 30.1062 20.0854 29.925 19.075C29.7309 18.0864 29.2468 17.178 28.5344 16.4656C27.822 15.7532 26.9136 15.2691 25.925 15.075C25.2018 14.9388 24.4574 14.964 23.745 15.1487C23.0326 15.3335 22.3698 15.6732 21.8039 16.1436C21.2379 16.614 20.7828 17.2036 20.471 17.8702C20.1592 18.5368 19.9983 19.2641 20 20C20 20.663 19.7366 21.2989 19.2678 21.7678C18.7989 22.2366 18.163 22.5 17.5 22.5C16.837 22.5 16.2011 22.2366 15.7322 21.7678C15.2634 21.2989 15 20.663 15 20C14.9988 18.5408 15.3184 17.0992 15.9362 15.7772C16.554 14.4552 17.4549 13.2852 18.575 12.35C19.9134 11.2188 21.5259 10.4597 23.2506 10.1488C24.9752 9.838 26.7513 9.98643 28.4004 10.5792C30.0495 11.172 31.5137 12.1882 32.6457 13.5259C33.7778 14.8636 34.538 16.4756 34.85 18.2C35.1851 20.1672 34.9094 22.1897 34.0602 23.9955C33.211 25.8013 31.8289 27.3035 30.1 28.3Z"
        fill="#436eab"/>
</svg>
