<svg width="25" height="15" viewBox="0 0 25 15" xmlns="http://www.w3.org/2000/svg">
<path d="M24.1556 1.55254C24.3443 2.06948 23.7523 3.27916 22.2652 5.25738C19.8209 8.50819 19.5564 8.20577 21.5725 10.0832C23.5128 11.8848 23.9161 12.755 23.979 12.8679C23.979 12.8679 24.7854 14.2792 23.0846 14.2921L19.8588 14.3429C19.1661 14.4816 18.2459 13.8517 18.2459 13.8517C17.0362 13.0203 15.9023 10.8654 15.0201 11.1429C15.0201 11.1429 14.1128 11.4324 14.1378 13.3735C14.1507 13.7896 13.9491 14.0163 13.9491 14.0163C13.9491 14.0163 13.7225 14.2558 13.2814 14.2937H11.8322C8.64428 14.4953 5.8338 11.559 5.8338 11.559C5.8338 11.559 2.7588 8.38319 0.0628324 2.04528C-0.113781 1.62916 0.0757356 1.42754 0.0757356 1.42754C0.0757356 1.42754 0.264445 1.18803 0.794284 1.18803L4.2467 1.16303C4.57412 1.21383 4.80154 1.38964 4.80154 1.38964C4.80154 1.38964 5.00315 1.52835 5.10396 1.79286C5.6709 3.20416 6.40154 4.48964 6.40154 4.48964C7.66203 7.08561 8.51848 7.52674 9.00961 7.26141C9.00961 7.26141 9.65235 6.87109 9.51364 3.73319C9.46283 2.59932 9.14832 2.08238 9.14832 2.08238C8.8588 1.69206 8.31686 1.57835 8.07735 1.54045C7.88864 1.51545 8.20315 1.06141 8.61928 0.8598C9.23703 0.557381 10.333 0.544477 11.6306 0.557381C12.6515 0.570284 12.9411 0.633187 13.3314 0.72109C14.5282 1.01061 14.1249 2.11948 14.1249 4.79125C14.1249 5.6477 13.9612 6.84528 14.5782 7.23561C14.8427 7.41222 15.4983 7.26061 17.1112 4.51383C17.1112 4.51383 17.8677 3.20335 18.4596 1.67835C18.5604 1.40093 18.7749 1.28803 18.7749 1.28803C18.7749 1.28803 18.9765 1.17432 19.254 1.21222L22.883 1.18722C23.979 1.04851 24.1556 1.55254 24.1556 1.55254Z"/>
</svg>

