<svg width="16" height="16" viewBox="0 0 16 16" fill="none" xmlns="http://www.w3.org/2000/svg">
<path fill-rule="evenodd" clip-rule="evenodd" d="M16 8C16 12.4183 12.4183 16 8 16C3.58172 16 0 12.4183 0 8C0 3.58172 3.58172 0 8 0C12.4183 0 16 3.58172 16 8ZM10 5C10 6.10457 9.10457 7 8 7C6.89543 7 6 6.10457 6 5C6 3.89543 6.89543 3 8 3C9.10457 3 10 3.89543 10 5ZM7.99993 9C5.98239 9 4.24394 10.195 3.45374 11.9157C4.55403 13.192 6.18265 14 7.99998 14C9.81728 14 11.4459 13.1921 12.5462 11.9158C11.756 10.195 10.0175 9 7.99993 9Z" fill="#111827"/>
</svg>
