<svg width="20" height="21" viewBox="0 0 20 21" fill="none" xmlns="http://www.w3.org/2000/svg">
<path d="M1 10.391L3 8.39993M3 8.39993L10 1.43127L17 8.39993M3 8.39993V18.3552C3 18.905 3.44772 19.3507 4 19.3507H7M17 8.39993L19 10.391M17 8.39993V18.3552C17 18.905 16.5523 19.3507 16 19.3507H13M7 19.3507C7.55228 19.3507 8 18.905 8 18.3552V14.3731C8 13.8233 8.44772 13.3775 9 13.3775H11C11.5523 13.3775 12 13.8233 12 14.3731V18.3552C12 18.905 12.4477 19.3507 13 19.3507M7 19.3507H13" stroke="#696262" stroke-width="2" stroke-linecap="round" stroke-linejoin="round"/>
</svg>
