<svg width="20" height="19" viewBox="0 0 20 19" fill="none" xmlns="http://www.w3.org/2000/svg">
<path d="M17 17.4152H3C1.89543 17.4152 1 16.5238 1 15.4241L1 3.47786C1 2.37824 1.89543 1.48682 3 1.48682L13 1.48682C14.1046 1.48682 15 2.37824 15 3.47786V4.47338M17 17.4152C15.8954 17.4152 15 16.5238 15 15.4241L15 4.47338M17 17.4152C18.1046 17.4152 19 16.5238 19 15.4241V6.46443C19 5.36481 18.1046 4.47338 17 4.47338L15 4.47338M11 1.48682L7 1.48682M5 13.4331H11M5 5.46891H11V9.451H5V5.46891Z" stroke="#696262" stroke-width="2" stroke-linecap="round" stroke-linejoin="round"/>
</svg>
