<svg width="22" height="19" viewBox="0 0 22 19" fill="none" xmlns="http://www.w3.org/2000/svg">
<path d="M14.5999 4.29921C14.5999 6.27854 12.9882 7.88309 10.9999 7.88309C9.01172 7.88309 7.39995 6.27854 7.39995 4.29921C7.39995 2.31989 9.01172 0.715332 10.9999 0.715332C12.9882 0.715332 14.5999 2.31989 14.5999 4.29921Z" fill="white"/>
<path d="M20.5999 6.68847C20.5999 8.00802 19.5254 9.07772 18.1999 9.07772C16.8745 9.07772 15.7999 8.00802 15.7999 6.68847C15.7999 5.36892 16.8745 4.29921 18.1999 4.29921C19.5254 4.29921 20.5999 5.36892 20.5999 6.68847Z" fill="white"/>
<path d="M15.7999 15.0509C15.7999 12.4118 13.6509 10.2723 10.9999 10.2723C8.34898 10.2723 6.19995 12.4118 6.19995 15.0509V18.6347H15.7999V15.0509Z" fill="white"/>
<path d="M6.19995 6.68847C6.19995 8.00802 5.12543 9.07772 3.79995 9.07772C2.47447 9.07772 1.39995 8.00802 1.39995 6.68847C1.39995 5.36892 2.47447 4.29921 3.79995 4.29921C5.12543 4.29921 6.19995 5.36892 6.19995 6.68847Z" fill="white"/>
<path d="M18.1999 18.6347V15.0509C18.1999 13.7915 17.8737 12.6081 17.3008 11.5797C17.5882 11.5061 17.8895 11.467 18.1999 11.467C20.1882 11.467 21.7999 13.0715 21.7999 15.0509V18.6347H18.1999Z" fill="white"/>
<path d="M4.69906 11.5797C4.12617 12.6081 3.79995 13.7915 3.79995 15.0509V18.6347H0.199951V15.0509C0.199951 13.0715 1.81173 11.467 3.79995 11.467C4.1104 11.467 4.41167 11.5061 4.69906 11.5797Z" fill="white"/>
</svg>
