<svg width="32" height="32" viewBox="0 0 32 32" fill="none" xmlns="http://www.w3.org/2000/svg">
<path d="M4.53506 25.6729C7.92111 23.759 11.833 22.6667 16 22.6667C20.167 22.6667 24.0789 23.759 27.4649 25.6729M21 12.6667C21 15.4281 18.7614 17.6667 16 17.6667C13.2386 17.6667 11 15.4281 11 12.6667C11 9.90524 13.2386 7.66667 16 7.66667C18.7614 7.66667 21 9.90524 21 12.6667ZM31 16C31 24.2843 24.2843 31 16 31C7.71573 31 1 24.2843 1 16C1 7.71573 7.71573 1 16 1C24.2843 1 31 7.71573 31 16Z" stroke="#696262" stroke-width="2" stroke-linecap="round" stroke-linejoin="round"/>
</svg>
